<svg xmlns="http://www.w3.org/2000/svg" xmlns:xlink="http://www.w3.org/1999/xlink"><symbol id="ios-close" viewBox="0 0 512 512"><path class="ast0" d="M403.1 108.9c-81.2-81.2-212.9-81.2-294.2 0s-81.2 212.9 0 294.2c81.2 81.2 212.9 81.2 294.2 0s81.2-213 0-294.2zM352 340.2L340.2 352l-84.4-84.2-84 83.8-11.8-11.8 84-83.8-84-83.8 11.8-11.8 84 83.8 84.4-84.2 11.8 11.8-84.4 84.2 84.4 84.2z"/></symbol><symbol id="ios-close-empty" viewBox="0 0 512 512"><path class="bst0" d="M340.2 160l-84.4 84.3-84-83.9-11.8 11.8 84 83.8-84 83.9 11.8 11.7 84-83.8 84.4 84.2 11.8-11.7-84.4-84.3 84.4-84.2z"/></symbol><symbol viewBox="0 0 512 512" id="ios-search"><path d="M448.3 424.7L335 311.3c20.8-26 33.3-59.1 33.3-95.1 0-84.1-68.1-152.2-152-152.2-84 0-152 68.2-152 152.2s68.1 152.2 152 152.2c36.2 0 69.4-12.7 95.5-33.8L425 448l23.3-23.3zM120.1 312.6c-25.7-25.7-39.8-59.9-39.8-96.3s14.2-70.6 39.8-96.3 59.9-40 96.2-40c36.3 0 70.5 14.2 96.2 39.9s39.8 59.9 39.8 96.3-14.2 70.6-39.8 96.3c-25.7 25.7-59.9 39.9-96.2 39.9-36.3.1-70.5-14.1-96.2-39.8z"/></symbol><symbol viewBox="0 0 512 512" id="ios-videocam"><path d="M303.7 128h-221C63.9 128 47 142.1 47 160.7v187.9c0 18.6 16.9 35.4 35.7 35.4h221c18.8 0 33.3-16.8 33.3-35.4V160.7c0-18.6-14.5-32.7-33.3-32.7zM367 213v85.6l98 53.4V160l-98 53z"/></symbol><symbol viewBox="0 0 512 512" id="load-c"><path d="M479.8 226.1c-1.4-8.7-3.1-17.3-5.3-25.8-2.8-10.8-6.4-21.5-10.8-31.8-8.9-21.2-21.1-41-35.9-58.6-16-18.9-35.3-35.2-56.7-47.7C350 49.8 327 41 303 36.1c-12.4-2.5-24.9-4-37.6-4.1-9.9-.1-19.8.3-29.6 1.2-25.5 2.5-50.7 9.6-73.9 20.5-19.9 9.4-38.4 21.6-54.8 36.2-16.4 14.6-30.7 31.6-42.2 50.3-12.7 20.8-22.2 43.5-27.4 67.3-4.2 19-6.2 38.6-5.2 58.1.9 18.9 3.8 37.8 9.5 55.9 3.6 11.5 7.9 22.7 13.3 33.6 5.3 10.7 11.5 21 18.4 30.7 13.8 19.3 30.6 36.4 49.8 50.5 19.6 14.5 41.7 25.7 64.9 33.1 24.2 7.7 49.9 11.3 75.3 10.4 24.8-.8 49.4-5.6 72.6-14.5 22.3-8.6 43.2-20.9 61.5-36.3 9.2-7.8 17.4-16.6 25.1-25.9 7.8-9.4 14.8-19.3 20.6-30 5-9.2 9.2-18.8 12.8-28.5 1.8-4.8 3.5-9.6 4.9-14.6 1.5-5.3 2.6-10.8 3.6-16.2 1.5-8.5 2.1-17.3 1.3-25.9-.7 3.8-1.3 7.5-2.2 11.2-1.1 4.3-2.5 8.5-4.1 12.6-3.2 8.7-7.2 17.1-11 25.5-4.9 10.7-10.6 20.9-16.8 30.8-3.2 5.1-6.5 10.1-10.1 14.9-3.6 4.8-7.7 9.4-11.8 13.9-8.2 9.1-17.1 17.2-27 24.4-10.1 7.4-20.8 13.9-32.1 19.3-22.6 11-47.3 17.6-72.3 19.8-25.6 2.2-51.7-.3-76.3-7.6-23.4-6.9-45.6-18.1-65.1-32.8-18.9-14.3-35.3-31.9-48.2-51.8C75.4 347.8 66.1 324.9 61 301c-1.3-6.2-2.3-12.6-3-18.9-.6-5.4-1.1-10.9-1.3-16.4-.3-11.3.4-23 2.1-34.2 3.7-24.6 11.7-48.3 24.1-69.9 11-19.3 25.3-36.7 42.1-51.4 16.8-14.8 36-26.7 56.8-35.1 12-4.9 24.6-8.5 37.4-10.9 6.5-1.2 13-2.2 19.5-2.7 3.2-.3 6.3-.3 9.5-.6 1.3 0 2.6.1 3.9.1 21.7-.4 43.5 2.4 64.2 8.9 22.3 7 43.3 18.3 61.5 33 19.1 15.4 35 34.4 47 55.8 10.2 18.2 17.5 37.8 21.9 58.2 1 4.7 1.8 9.4 2.6 14.1.7 4.3 3.1 8.3 6.8 10.7 7.8 5.2 18.7 1.7 22.5-6.7 1.3-2.9 1.7-6 1.2-8.9z"/></symbol><symbol viewBox="0 0 512 512" id="mt-logo"><circle fill="#8EC447" cx="256" cy="256" r="256"/><path d="M145.5 302c0-16.5 0-34.2.2-53.4.3-19 .3-38.4-.2-57.8 0-4.3-1-8.4-2.2-12.3-1.3-4-3.5-7-6.7-9-1.7-1-3.4-1.7-5.4-2.4-1.8-.6-4.3-1-7-1.5-3-.5-6.3-.7-10.4-1l-14.4-.6c-.6-7-1-14.6-1-22.7V135c0-1.8 0-4 .4-6 9.5-.6 17.5-1 23.8-1 5 0 9.5.2 13.5.7 4.6.7 9 1.3 14 2.5 2 .4 4 1 6.4 1.8 2.5 1 5 2.5 7.4 4.5 2.5 2 5 5 7.4 8.6 2.5 3.8 5 8.7 7 15 3.8-7.3 8.5-13.7 14.3-19.2 6-5.4 11.7-9 17.7-10.4 3.7-1.2 7.2-1.8 10.6-2.4 3.7-.5 7-.8 10.3-.8 7.5 0 14 2 19.6 6.4 5.5 4.4 9.3 12.8 11.7 25.5 4.7-8.5 10.8-16 18.4-22 7.7-6.2 17.3-9.3 28.7-9.3 3.2 0 6.2.5 9.5 1.6 3 1 6 3 9 5.6 2.8 2.3 5.5 6 8 10.6 2.3 4.4 4.4 10.3 6 17.5.8 8.4 1.3 17 1.5 26 .4 8.5.5 17.5.5 26.2v25.5c-.2 8.3-.2 16-.2 23.2 0 6.5 0 12.2.2 17.5l.5 15.5.4 16v20c0 7.3 1.6 11.5 4.4 12.8 2.8 1.3 6.8 0 11.7-3.2 5-3.2 10.8-8.6 17-16 6-7.4 12.5-16 19.2-26l8.6 9c3 3.2 5.5 6.8 8 10.8l-14 21c-4.8 7.3-10.5 14.2-16.7 20.3-6 6.2-13 11.3-20.5 15.3-7.7 4-16.3 6-26 6-1.5 0-3.6-.2-6-.5-2.5-.4-5-1-7.4-1.8-2.4-1-4.8-2.3-7.3-3.7-2.5-1.5-4.2-3.5-5.7-6.2-.6-1.2-1.2-2.8-1.6-5l-1-7.3-.4-8v-28.8l.2-18.5v-37c0-4.8 0-8.7-.2-12.2 0-3.4 0-7-.3-10.2 0-3.4 0-7-.2-10.5v-33c.3-7.8-.4-15.7-2-23.7-.6-2.7-1.6-4.6-3-5.4-1.2-1-3-1.2-5-1.2-1.6 0-3.6.6-5.4 1.4l-5.8 2.7c-2 1.4-4.2 2.8-6.7 5-2.4 2.5-5 5-7.4 8.2-2 3-4 6-5.5 9.5-1.7 3.2-2.7 6.4-3 9.3-.3 5-.5 12.3-.2 22.2.2 9.4 0 21.6-.4 36.4-.3 4.7 0 10.2 0 16.5.4 6.5.5 12.8.5 19 .3 13.3.3 26.4 0 39.4-.5 13-.5 25.5-.2 37.6-6.2.3-12.3.7-18.5.8-6 .3-12.3-.2-18-1.4l-.4-16.7V204c0-4.2 0-8.6-.4-13-.3-4.5-1-8.7-1.7-12.4-.7-2.8-1.6-4.7-3-5.6-1.5-1-3-1.2-5-1.2-1.6 0-3.6.5-5.6 1.2l-6 3c-1.7 1-3.8 2.7-6 5-2.5 2.4-4.7 5.2-6.8 8.3-2.3 3-4 6-5.5 9.8-1.5 3.5-2.5 6.7-2.5 9.6l-.5 60.8-.8 55c-.4 17.6-.5 35.6-.5 53.7-2.5.5-5.2.8-8.4 1h-9.6c-3 .2-6.2.2-9.2.2-3 0-5.6-.4-7.8-1 0-.5-.4-2.7-.4-6.6l-.3-13.8v-17.6c.2-6.2.2-12.3.2-17.6v-21l-.2.3z" fill="#fff"/></symbol><symbol viewBox="0 0 512 512" id="mt-pause-circle"><path d="M256 48C141 48 48 141 48 256s93 208 208 208 208-93 208-208S371 48 256 48zm0 398.7c-105 0-190.7-85.5-190.7-190.7 0-105 85.5-190.7 190.7-190.7 105 0 190.7 85.5 190.7 190.7 0 105-85.6 190.7-190.7 190.7zm-76.5-286.3h47v189h-47zm105.2 0h47v189h-47z"/></symbol><symbol viewBox="0 0 512 512" id="mt-play-circle"><path d="M256 48C141 48 48 141 48 256s93 208 208 208 208-93 208-208S371 48 256 48zm0 398.7c-105 0-190.7-85.5-190.7-190.7 0-105 85.5-190.7 190.7-190.7 105 0 190.7 85.5 190.7 190.7 0 105-85.6 190.7-190.7 190.7zM203 161v190l152.3-95L203 161z"/></symbol></svg>